<svg width="32" height="32" viewBox="0 0 32 32" fill="none" xmlns="http://www.w3.org/2000/svg">
<g clip-path="url(#clip0_565_15569)">
<path d="M30.5818 0H15.2129C15.2129 0.911088 15.3923 1.81326 15.7409 2.655C16.0896 3.49674 16.6006 4.26157 17.2448 4.9058C17.8891 5.55004 18.6539 6.06107 19.4956 6.40971C20.3374 6.75836 21.2396 6.93778 22.1506 6.93775H24.9818V9.67125C24.9843 13.4994 28.0869 16.6021 31.915 16.6046V1.33325C31.915 0.597125 31.3183 0 30.5818 0Z" fill="#2684FF"/>
<path d="M22.9781 7.65771H7.60938C7.61175 11.4858 10.7144 14.5886 14.5426 14.5911H17.3737V17.3333C17.3786 21.1615 20.4834 24.2621 24.3115 24.2621V8.99121C24.3115 8.25484 23.7145 7.65771 22.9781 7.65771Z" fill="url(#paint0_linear_565_15569)"/>
<path d="M15.3689 15.311H0C0 19.1427 3.10625 22.2488 6.93775 22.2488H9.77775V24.9822C9.78025 28.8068 12.8775 31.9082 16.7022 31.9154V16.6444C16.7022 15.908 16.1052 15.311 15.3689 15.311Z" fill="url(#paint1_linear_565_15569)"/>
</g>
<defs>
<linearGradient id="paint0_linear_565_15569" x1="1644.94" y1="10.331" x2="995.141" y2="688.363" gradientUnits="userSpaceOnUse">
<stop offset="0.18" stop-color="#0052CC"/>
<stop offset="1" stop-color="#2684FF"/>
</linearGradient>
<linearGradient id="paint1_linear_565_15569" x1="1681.33" y1="22.866" x2="929.683" y2="762.391" gradientUnits="userSpaceOnUse">
<stop offset="0.18" stop-color="#0052CC"/>
<stop offset="1" stop-color="#2684FF"/>
</linearGradient>
<clipPath id="clip0_565_15569">
<rect width="32" height="32" fill="white"/>
</clipPath>
</defs>
</svg>
