<svg width="32" height="32" viewBox="0 0 32 32" fill="none" xmlns="http://www.w3.org/2000/svg">
<path d="M24.5 30.25H25.25V12.25L23.75 14.5V28.5L24.5 30.25Z" fill="url(#paint0_linear_565_15526)"/>
<path d="M24.5 30.25V12.75L30.25 1.75H31.5V15.25L26 30.25H24.5Z" fill="url(#paint1_linear_565_15526)"/>
<path d="M31.5 30.25H24.5C25.225 28.825 28.025 22.95 29.25 18.25C31.375 9.975 31.5 3.75 31.5 3.75V30.25Z" fill="url(#paint2_linear_565_15526)"/>
<path d="M31.5 1.75H22.25L15.75 17.25L18.5 24.75H18.75C18.85 24.75 19 24.675 19.25 24.25C20.275 22.35 31.5 1.75 31.5 1.75Z" fill="url(#paint3_linear_565_15526)"/>
<path d="M0.5 30.4251L1.25 30.2501L8 18.0001V14.0001L1.25 2.2501L0.5 1.8501V30.4251Z" fill="url(#paint4_linear_565_15526)"/>
<path d="M8 14.7749C7.425 16.4999 6.025 20.6749 4.6 23.3499C2.05 28.2499 0.5 30.4249 0.5 30.4249C0.5 30.4249 6.425 30.9249 8 28.9999V14.7749Z" fill="url(#paint5_linear_565_15526)"/>
<path d="M13 24.25C13.25 24.7 13.4 24.75 13.5 24.75H18.75C18.8 24.7 18.85 24.65 18.85 24.575C18.825 24.475 18.8 24.35 18.75 24.25L9.5 1L0.5 1.85C0.5 1.85 11.925 22.3 13 24.25Z" fill="url(#paint6_linear_565_15526)"/>
<defs>
<linearGradient id="paint0_linear_565_15526" x1="25.1943" y1="21.2735" x2="21.644" y2="22.7645" gradientUnits="userSpaceOnUse">
<stop offset="0.09" stop-color="#1A5964"/>
<stop offset="0.3" stop-color="#137078"/>
<stop offset="0.5" stop-color="#0E8085"/>
<stop offset="0.66" stop-color="#0C858A"/>
<stop offset="1" stop-color="#0A8B8F"/>
</linearGradient>
<linearGradient id="paint1_linear_565_15526" x1="24.8952" y1="14.0308" x2="32.5415" y2="18.8808" gradientUnits="userSpaceOnUse">
<stop stop-color="#079EA0"/>
<stop offset="0.43" stop-color="#14878E"/>
<stop offset="1" stop-color="#256A77"/>
</linearGradient>
<linearGradient id="paint2_linear_565_15526" x1="28" y1="4.20875" x2="28" y2="30.1243" gradientUnits="userSpaceOnUse">
<stop stop-color="#B4B4B4"/>
<stop offset="0.8" stop-color="#03ABAB"/>
<stop offset="1" stop-color="#137980"/>
</linearGradient>
<linearGradient id="paint3_linear_565_15526" x1="14.8373" y1="14.3542" x2="33.8713" y2="10.6437" gradientUnits="userSpaceOnUse">
<stop stop-color="#0F5D64"/>
<stop offset="0.1" stop-color="#097A7E"/>
<stop offset="0.23" stop-color="#049395"/>
<stop offset="0.34" stop-color="#01A3A3"/>
<stop offset="0.43" stop-color="#00A8A8"/>
<stop offset="1" stop-color="#4EBCC1"/>
</linearGradient>
<linearGradient id="paint4_linear_565_15526" x1="-2.50075" y1="18.0083" x2="6.693" y2="12.6871" gradientUnits="userSpaceOnUse">
<stop stop-color="#00A9A9"/>
<stop offset="0.65" stop-color="#049496"/>
<stop offset="1" stop-color="#088286"/>
</linearGradient>
<linearGradient id="paint5_linear_565_15526" x1="0.515" y1="22.9107" x2="8.0035" y2="22.4962" gradientUnits="userSpaceOnUse">
<stop stop-color="#20626E"/>
<stop offset="1" stop-color="#069D9F"/>
</linearGradient>
<linearGradient id="paint6_linear_565_15526" x1="10.259" y1="1.3165" x2="9.084" y2="25.3945" gradientUnits="userSpaceOnUse">
<stop stop-color="#99CBD2"/>
<stop offset="0.9" stop-color="#498F93"/>
<stop offset="1" stop-color="#2E7B7D"/>
</linearGradient>
</defs>
</svg>
