<svg width="33" height="32" viewBox="0 0 33 32" fill="none" xmlns="http://www.w3.org/2000/svg">
<path d="M19.7998 24V22.5C19.7998 20.6875 21.7711 18.9732 23.0498 17.75C24.8523 16.0269 25.7998 13.7119 25.7998 11C25.7998 6.00004 21.8167 2.00003 16.7998 2.00003C15.617 1.99674 14.4452 2.22728 13.3518 2.6784C12.2584 3.12952 11.2649 3.79233 10.4285 4.62872C9.59214 5.4651 8.92933 6.45856 8.4782 7.55198C8.02708 8.6454 7.79654 9.81721 7.79984 11C7.79984 13.615 8.78796 16.0869 10.5498 17.75C11.8217 18.9507 13.7998 20.6688 13.7998 22.5V24M14.7998 30H18.7998M13.7998 27H19.7998M16.7998 24V16M16.7998 16C17.8305 16 19.1748 15 19.1748 15M16.7998 16C15.7692 16 14.4248 15 14.4248 15" stroke="url(#paint0_linear_284_3766)" stroke-linecap="round" stroke-linejoin="round"/>
<defs>
<linearGradient id="paint0_linear_284_3766" x1="7.7998" y1="2.0445" x2="30.1004" y2="25.933" gradientUnits="userSpaceOnUse">
<stop stop-color="#A72B54"/>
<stop offset="1" stop-color="#C5713E"/>
</linearGradient>
</defs>
</svg>
