<svg width="153" height="102" viewBox="0 0 153 102" fill="none" xmlns="http://www.w3.org/2000/svg">
<path d="M8.6 2C4.95492 2 2 4.95491 2 8.6V85.8C2 93.6424 8.35756 100 16.2 100H123.1C137.956 100 150 87.9565 150 73.1V41.3C150 19.5952 132.405 2 110.7 2H8.6Z" stroke="url(#paint0_linear_152_25071)" stroke-width="4"/>
<path d="M27.3255 34.2483C28.288 34.7902 29.5076 34.4492 30.0495 33.4867C30.5914 32.5242 30.2504 31.3046 29.2879 30.7627L27.3255 34.2483ZM2.05703 64.2818L4.05601 64.346L2.05703 64.2818ZM7.00094 86.1834L8.58837 84.9668L8.58835 84.9668L7.00094 86.1834ZM30.0468 73.659L31.6506 72.4641L31.6506 72.4641L30.0468 73.659ZM22.7211 65.171L24.7035 64.9061L24.7034 64.9061L22.7211 65.171ZM34.6874 39.0913L33.3933 37.5664H33.3933L34.6874 39.0913ZM35.848 92.7983L37.6397 91.9096L37.6397 91.9096L35.848 92.7983ZM44.8156 76.9885C45.9102 76.8408 46.6779 75.8337 46.5302 74.7391C46.3825 73.6444 45.3754 72.8768 44.2808 73.0244L44.8156 76.9885ZM69.3978 39.1317C69.9427 38.1709 69.6056 36.9503 68.6448 36.4054C67.684 35.8604 66.4634 36.1976 65.9184 37.1584L69.3978 39.1317ZM58.5049 97.3566L59.5171 95.6317L59.517 95.6316L58.5049 97.3566ZM67.7606 97.9387L66.8893 96.1385L67.7606 97.9387ZM76.41 79.4638L74.8615 78.198L74.8615 78.1981L76.41 79.4638ZM81.2054 80.3689L82.9575 79.4044L82.9575 79.4043L81.2054 80.3689ZM90.9102 93.4946L90.6494 91.5117H90.6494L90.9102 93.4946ZM100.777 69.5661L99.0958 70.6498L99.0959 70.6498L100.777 69.5661ZM86.3305 28.8735L87.0528 30.7385L86.3305 28.8735ZM98.8254 39.7091C99.2808 40.7154 100.466 41.1621 101.472 40.7067C102.478 40.2513 102.925 39.0664 102.47 38.0601L98.8254 39.7091ZM122.86 50.1463C122.365 49.1589 121.163 48.7598 120.176 49.2549C119.188 49.75 118.789 50.9519 119.284 51.9392L122.86 50.1463ZM129.124 47.1943L131.083 46.794L131.083 46.794L129.124 47.1943ZM115.758 72.0518L114.702 73.7502L114.702 73.7502L115.758 72.0518ZM104.536 54.4375L103.07 53.0766L103.07 53.0767L104.536 54.4375ZM108.658 87.9862L106.951 89.0292L106.951 89.0292L108.658 87.9862ZM134.591 95.7725L133.646 94.0101L134.591 95.7725ZM143.569 44.1019L145.373 43.2394L143.569 44.1019ZM112.606 24.1474L112.034 26.0639L112.606 24.1474ZM106.427 9.49536L104.563 8.76966L104.529 8.85728L104.504 8.94772L106.427 9.49536ZM148 40.5511L148.034 42.5508L152.034 42.483L152 40.4833L148 40.5511ZM29.2879 30.7627C24.6106 28.1294 20.2423 27.8397 16.3741 29.4395C12.6119 30.9955 9.62274 34.216 7.31512 38.0092C2.7047 45.5876 0.312916 56.2729 0.0580614 64.2177L4.05601 64.346C4.29504 56.8943 6.57036 46.9296 10.7324 40.0881C12.8111 36.6713 15.2345 34.2394 17.9028 33.1358C20.465 32.0761 23.545 32.1198 27.3255 34.2483L29.2879 30.7627ZM0.0580614 64.2177C-0.208312 72.5216 0.246265 80.6578 5.41353 87.4L8.58835 84.9668C4.34318 79.4277 3.79198 72.5765 4.05601 64.346L0.0580614 64.2177ZM5.4135 87.3999C8.54762 91.4895 12.3104 93.4298 16.1544 93.6525C19.9312 93.8713 23.5129 92.4176 26.3625 90.2505C29.2093 88.0857 31.4803 85.0958 32.6023 81.9678C33.7221 78.8458 33.7705 75.3091 31.6506 72.4641L28.4431 74.854C29.5024 76.2758 29.6742 78.2838 28.8372 80.6173C28.0023 82.9448 26.2362 85.3213 23.9412 87.0666C21.6492 88.8096 18.9844 89.8098 16.3857 89.6592C13.8541 89.5125 11.1124 88.2602 8.58837 84.9668L5.4135 87.3999ZM31.6506 72.4641C29.9662 70.2035 27.8867 69.0382 26.7289 68.1847C26.1129 67.7306 25.695 67.3452 25.3879 66.8939C25.0934 66.4609 24.8314 65.8638 24.7035 64.9061L20.7387 65.436C20.9384 66.9304 21.3935 68.1338 22.0808 69.144C22.7556 70.1357 23.5844 70.8361 24.3554 71.4044C25.9716 72.5958 27.2273 73.2223 28.4431 74.854L31.6506 72.4641ZM24.7034 64.9061C24.5609 63.8394 24.6964 62.164 25.1875 60.0336C25.6693 57.9432 26.4593 55.5593 27.5025 53.1373C29.6088 48.2475 32.6372 43.4545 35.9816 40.6161L33.3933 37.5664C29.3914 40.9628 26.0584 46.3789 23.8288 51.5549C22.7042 54.1659 21.8328 56.779 21.2897 59.1352C20.7558 61.4513 20.503 63.6719 20.7387 65.436L24.7034 64.9061ZM35.9816 40.6161C38.5863 38.4055 40.5534 37.8662 41.9728 38.036C43.3797 38.2043 44.7997 39.1366 46.166 41.1202C48.9505 45.163 50.7536 52.5138 51.3329 60.8248C51.9067 69.0584 51.2521 77.8265 49.4435 84.462C48.5363 87.7905 47.3748 90.4462 46.039 92.2258C44.7156 93.9891 43.3931 94.6894 42.0895 94.6894V98.6894C45.0862 98.6894 47.4651 96.9893 49.2382 94.627C50.9989 92.2812 52.3291 89.0861 53.3028 85.5139C55.256 78.3477 55.9203 69.114 55.3232 60.5466C54.7314 52.0565 52.8736 43.8071 49.4602 38.8513C47.7275 36.3357 45.4143 34.4192 42.448 34.0643C39.4941 33.7109 36.4479 34.9739 33.3933 37.5664L35.9816 40.6161ZM42.0895 94.6894C41.0277 94.6894 40.196 94.4878 39.5247 94.0977C38.8648 93.7142 38.2116 93.0626 37.6397 91.9096L34.0563 93.6869C34.9168 95.422 36.0695 96.716 37.5148 97.556C38.9488 98.3894 40.5216 98.6894 42.0895 98.6894V94.6894ZM37.6397 91.9096C36.3926 89.3953 36.721 85.8607 38.3125 82.6782C39.9182 79.4672 42.4535 77.3072 44.8156 76.9885L44.2808 73.0244C40.0857 73.5904 36.6502 77.059 34.7349 80.8892C32.8053 84.7478 32.0622 89.6668 34.0563 93.687L37.6397 91.9096ZM65.9184 37.1584C62.3651 43.4236 56.0334 56.0621 52.583 68.3732C50.8613 74.5165 49.8114 80.7337 50.2744 86.0998C50.7401 91.4972 52.778 96.3155 57.4928 99.0817L59.517 95.6316C56.3148 93.7529 54.66 90.3958 54.2596 85.7559C53.8565 81.0846 54.7671 75.4025 56.4346 69.4527C59.7628 57.5777 65.9248 45.2553 69.3978 39.1317L65.9184 37.1584ZM57.4927 99.0816C58.6287 99.7482 60.3699 100.376 62.2873 100.625C64.2127 100.875 66.5077 100.767 68.6319 99.739L66.8893 96.1385C65.679 96.7243 64.2296 96.8437 62.8024 96.6583C61.3674 96.472 60.1479 96.0018 59.5171 95.6317L57.4927 99.0816ZM68.6319 99.739C70.5529 98.8092 71.8609 97.126 72.8016 95.3637C73.7471 93.5923 74.4296 91.5345 74.9929 89.583C75.5984 87.4851 75.9978 85.7861 76.5256 84.0543C77.0427 82.3573 77.5096 81.2787 77.9585 80.7295L74.8615 78.1981C73.86 79.4232 73.2118 81.2066 72.6993 82.8882C72.1975 84.5349 71.6528 86.731 71.1497 88.4737C70.6045 90.3628 70.0142 92.0911 69.2728 93.4801C68.5265 94.8783 67.7334 95.73 66.8893 96.1385L68.6319 99.739ZM77.9584 80.7296C78.0756 80.5863 78.225 80.4382 78.376 80.3323C78.5307 80.2237 78.604 80.2167 78.593 80.2178C78.5353 80.2239 78.5266 80.1902 78.6238 80.2567C78.7603 80.3502 79.0638 80.6257 79.4534 81.3334L82.9575 79.4043C81.8009 77.3034 80.1748 76.0298 78.1754 76.2397C76.5077 76.4148 75.3549 77.5944 74.8615 78.198L77.9584 80.7296ZM79.4533 81.3333C79.8469 82.0483 80.2669 83.182 80.83 84.7054C81.3639 86.1498 81.9951 87.8479 82.7697 89.4238C83.5357 90.9822 84.5201 92.5887 85.8422 93.7621C87.2252 94.9895 89.0109 95.7616 91.171 95.4775L90.6494 91.5117C89.8511 91.6166 89.1864 91.3819 88.4974 90.7704C87.7474 90.1048 87.0382 89.0402 86.3594 87.6593C85.6893 86.2959 85.1245 84.7863 84.5819 83.3185C84.0685 81.9297 83.5313 80.4468 82.9575 79.4044L79.4533 81.3333ZM91.171 95.4775C95.5396 94.903 100.358 91.3297 103.089 86.5018C105.901 81.531 106.648 74.9815 102.458 68.4823L99.0959 70.6498C102.372 75.7305 101.792 80.6709 99.6076 84.5323C97.3424 88.5365 93.4946 91.1375 90.6494 91.5117L91.171 95.4775ZM102.458 68.4823C101.317 66.7126 98.7756 63.5659 96.0661 60.0146C93.2898 56.3756 90.2032 52.1484 87.7475 47.9706C85.2578 43.735 83.5701 39.8004 83.3297 36.7035C83.2128 35.1972 83.449 34.0171 83.9812 33.1034C84.5026 32.2082 85.4234 31.3696 87.0528 30.7385L85.6082 27.0085C83.3015 27.9018 81.5861 29.268 80.5248 31.0903C79.4742 32.894 79.1811 34.9441 79.3417 37.0131C79.6564 41.0667 81.7512 45.663 84.2991 49.9976C86.8809 54.3899 90.0869 58.7721 92.886 62.4408C95.7518 66.1972 98.0686 69.0564 99.0958 70.6498L102.458 68.4823ZM119.284 51.9392C121.538 56.4341 119.847 58.6073 118.99 59.0623C118.507 59.3184 118.125 59.2478 117.857 59.041C117.55 58.8044 116.966 58.0472 116.966 56.1168H112.966C112.966 58.7779 113.782 60.9507 115.415 62.2093C117.086 63.4976 119.185 63.4873 120.865 62.5955C124.333 60.7548 125.695 55.7995 122.86 50.1463L119.284 51.9392ZM116.966 56.1168C116.966 53.9852 117.562 51.4497 118.559 49.0592C119.559 46.6613 120.886 44.5949 122.195 43.3293C123.6 41.9718 124.37 42.0473 124.671 42.1876C124.908 42.2981 125.331 42.6147 125.815 43.4925C126.298 44.3689 126.775 45.6898 127.164 47.5945L131.083 46.794C130.646 44.653 130.061 42.9105 129.318 41.5619C128.575 40.2146 127.608 39.1447 126.363 38.5632C123.699 37.3194 121.137 38.7891 119.415 40.4532C117.599 42.2091 116.005 44.7917 114.867 47.5193C113.727 50.2543 112.966 53.3207 112.966 56.1168H116.966ZM127.164 47.5945C128.325 53.2791 127.512 60.6167 125.271 65.7C124.144 68.2551 122.778 69.965 121.4 70.7497C120.196 71.4348 118.75 71.5574 116.814 70.3534L114.702 73.7502C117.735 75.6368 120.756 75.7194 123.379 74.2257C125.827 72.8316 127.648 70.2238 128.931 67.3139C131.509 61.4672 132.409 53.2856 131.083 46.794L127.164 47.5945ZM116.814 70.3535C112.637 67.7558 111.208 62.8235 110.266 58.4668C110.044 57.4431 109.834 56.3852 109.627 55.5248C109.425 54.6908 109.168 53.7722 108.764 53.0513C108.351 52.3141 107.421 51.2085 105.827 51.3947C104.647 51.5324 103.721 52.376 103.07 53.0766L106.002 55.7983C106.612 55.1409 106.671 55.3232 106.291 55.3677C105.495 55.4606 105.176 54.8297 105.275 55.0063C105.383 55.1992 105.538 55.6336 105.738 56.4628C105.932 57.2656 106.111 58.1813 106.356 59.3127C107.279 63.5759 108.939 70.1669 114.702 73.7502L116.814 70.3535ZM103.07 53.0767C102.428 53.7686 102.003 54.7108 101.703 55.6313C101.389 56.5945 101.148 57.7337 100.976 58.984C100.632 61.4882 100.543 64.5956 100.78 67.9563C101.252 74.6495 103.037 82.6254 106.951 89.0292L110.364 86.9432C106.894 81.2664 105.215 73.9799 104.77 67.6749C104.549 64.5364 104.639 61.7108 104.939 59.5287C105.089 58.4358 105.286 57.5436 105.506 56.8721C105.739 56.1579 105.942 55.8623 106.002 55.7982L103.07 53.0767ZM106.951 89.0292C110.008 94.0305 113.806 98.0099 118.66 99.7746C123.589 101.566 129.203 100.933 135.537 97.5349L133.646 94.0101C128.015 97.0307 123.603 97.3155 120.026 96.0153C116.375 94.688 113.189 91.565 110.364 86.9432L106.951 89.0292ZM135.537 97.5349C144.457 92.7497 149.51 84.455 151.011 74.7337C152.505 65.056 150.494 53.9528 145.373 43.2394L141.764 44.9645C146.617 55.1171 148.403 65.4047 147.057 74.1235C145.718 82.7988 141.296 89.9063 133.646 94.0101L135.537 97.5349ZM145.373 43.2394C141.678 35.5094 136.931 31.1876 131.334 28.3275C125.908 25.5547 119.598 24.1469 113.178 22.2309L112.034 26.0639C118.852 28.0986 124.521 29.3379 129.514 31.8894C134.337 34.3539 138.451 38.034 141.764 44.9645L145.373 43.2394ZM113.178 22.2309C109.817 21.2279 108.444 19.3152 107.91 17.2369C107.332 14.9846 107.7 12.3298 108.351 10.043L104.504 8.94772C103.776 11.5043 103.198 14.9715 104.036 18.2323C104.919 21.6672 107.325 24.6587 112.034 26.0639L113.178 22.2309ZM108.291 10.2211C109.541 7.01052 112.211 5.40382 115.941 5.25984C119.773 5.11189 124.584 6.55697 129.383 9.48442C138.978 15.3373 147.765 26.6351 148 40.5511L152 40.4833C151.735 24.8821 141.934 12.4552 131.466 6.06964C126.234 2.87786 120.645 1.07524 115.786 1.26282C110.825 1.45438 106.512 3.76646 104.563 8.76966L108.291 10.2211ZM87.0528 30.7385C89.061 29.9608 91.3335 30.7357 93.6886 32.7859C95.9976 34.796 97.8904 37.6428 98.8254 39.7091L102.47 38.0601C101.335 35.5526 99.1212 32.2119 96.315 29.769C93.5548 27.3661 89.7036 25.4224 85.6082 27.0085L87.0528 30.7385Z" fill="url(#paint1_linear_152_25071)"/>
<defs>
<linearGradient id="paint0_linear_152_25071" x1="4" y1="4" x2="158.731" y2="43.8968" gradientUnits="userSpaceOnUse">
<stop stop-color="#A72B54"/>
<stop offset="1" stop-color="#C5713E"/>
</linearGradient>
<linearGradient id="paint1_linear_152_25071" x1="2.00006" y1="3.24951" x2="160.797" y2="44.6708" gradientUnits="userSpaceOnUse">
<stop stop-color="#A72B54"/>
<stop offset="1" stop-color="#C5713E"/>
</linearGradient>
</defs>
</svg>
